PathFileType	4	(X/Y/Z)	7_coords_data.trc
DataRate	CameraRate	NumFrames	NumMarkers	Units	OrigDataRate	OrigDataStartFrame	OrigNumFrames
30.0	30.0	6	21	m	30.0	19	56
Frame#	Time	THUMB_TIP	THUMB_IP	THUMB_MCP	THUMB_CMC	INDEX_TIP	INDEX_DIP	INDEX_PIP	INDEX_MCP	MIDDLE_TIP	MIDDLE_DIP	MIDDLE_PIP	MIDDLE_MCP	RING_TIP	RING_DIP	RING_PIP	RING_MCP	PINKY_TIP	PINKY_DIP	PINKY_PIP	PINKY_MCP	WRIST
X1	Y1	Z1	X2	Y2	Z2	X3	Y3	Z3	X4	Y4	Z4	X5	Y5	Z5	X6	Y6	Z6	X7	Y7	Z7	X8	Y8	Z8	X9	Y9	Z9	X10	Y10	Z10	X11	Y11	Z11	X12	Y12	Z12	X13	Y13	Z13	X14	Y14	Z14	X15	Y15	Z15	X16	Y16	Z16	X17	Y17	Z17	X18	Y18	Z18	X19	Y19	Z19	X20	Y20	Z20	X21	Y21	Z21
17	0.5999999999999973	0.4811977039915225	-0.03219606885692328	-0.17352591782634497	0.47823159159671436	-0.03367611127246495	-0.15078802760518406	0.4642622780518133	-0.03330950916863773	-0.12297537073853937	0.4670959357306288	-0.032853283944857314	-0.07845961799072576	0.5666431258655555	0.024735129250336052	-0.17322572794010693	0.5517388644013788	0.02297802487410805	-0.16308789905920285	0.5319536621987117	0.017763445604727424	-0.1484809223068792	0.5042331081279366	-0.0008682234352809237	-0.12205994797221753	0.5905868997707933	0.04890551670793242	-0.1404214778792135	0.5758712699191558	0.041193467715151866	-0.1332121409885868	0.5518155580165786	0.02936353616856613	-0.1217760142638914	0.5183429188595366	0.006023662300081223	-0.1035831410255682	0.5989277212429486	0.036911745183187405	-0.11708833609794089	0.5837437575770904	0.03099987181985453	-0.1093749062039302	0.5627239001624709	0.022475073572278625	-0.09909514997592606	0.5304171226201404	0.0022149265640259985	-0.08565939908383269	0.6031538239072983	0.016053570566296083	-0.061780325156034044	0.5869794822964665	0.010454422608344727	-0.06198086343437781	0.567127496138998	0.003659354554805705	-0.06271415379396084	0.533285397389731	-0.008337310187433666	-0.06613114637621409	0.4622830810018609	-0.023011742144276925	-0.051989820119430985
18	0.6333333333333304	0.4812485214913047	-0.03261957480596245	-0.17349348484758303	0.4782365797977306	-0.03398354066222142	-0.15075435987810648	0.4642375296444726	-0.03347322807236708	-0.12295892543524867	0.46707306314714836	-0.032904731324930325	-0.07844458436179957	0.5667937634575135	0.023829660256732277	-0.17329327464007233	0.5518455180673864	0.022398268803459187	-0.16316899302288906	0.5319755054510995	0.01752774683242664	-0.1485583651322645	0.5041805615857481	-0.0009751845849620411	-0.12212507705670761	0.5906753353752622	0.04851645674552685	-0.1406033487028437	0.5759283144754934	0.040898217675002124	-0.1333585017033473	0.5518249847842845	0.029195706483355788	-0.12189158059930705	0.518312186122497	0.0059419694689309965	-0.10366237431602465	0.5990047638352158	0.0365842494685773	-0.11721217185681665	0.5837920919121925	0.0307710502751688	-0.10948033325916007	0.5627348954220293	0.022352355874637464	-0.09918955877105062	0.5304044580733692	0.0021370533617861565	-0.08574317638922468	0.6032406073777599	0.015754047009322036	-0.06202492450847785	0.5870507686301851	0.010198720608332934	-0.06219066498632664	0.5671745891120611	0.003471487357869396	-0.06289340217558548	0.5332886437724345	-0.00842926790469356	-0.06620975312511135	0.462283081001861	-0.023011742144276925	-0.051989820119430985
19	0.6666666666666637	0.48129751739245064	-0.03302360532516735	-0.17344160152713195	0.4782350275496403	-0.03428300958475339	-0.1507031966386262	0.46418431768130064	-0.03362962616244336	-0.12293683853571347	0.4670550763106409	-0.032962605634200615	-0.07842612265170446	0.5669522076952217	0.022970213209492885	-0.17334219211268836	0.5519631093694625	0.021846537108649366	-0.16323950517301172	0.5320205323413656	0.01729047249602489	-0.1486263012216526	0.5041621449221936	-0.001083905413707953	-0.12217013784081365	0.5908517711190853	0.04800428639638077	-0.14074941138703256	0.5760517082507844	0.04052855724789328	-0.13346438477124067	0.5518703699743128	0.02901156964030638	-0.12197389193561614	0.5182919362882066	0.005867430051773259	-0.10372600123848996	0.599111268031898	0.0362774886476539	-0.11725404468895917	0.583867931245353	0.030555894218867286	-0.10951427461456775	0.5627726170861962	0.0222259884998669	-0.09922931616841701	0.5304043881616233	0.002058979081655532	-0.08580134828745223	0.6033637825939544	0.01536419712210102	-0.06223878394887872	0.58714924133188	0.009880355074513236	-0.06236578023855255	0.5672380820735631	0.003254038594252995	-0.06303636646967714	0.5332983863292571	-0.008520023605105065	-0.06625381314516299	0.462283081001861	-0.023011742144276925	-0.051989820119430985
20	0.6999999999999968	0.481331609794057	-0.033397622931285786	-0.17339669012108005	0.47822580722909014	-0.034551476260332614	-0.1506585588671161	0.46413248271710905	-0.033763477073375014	-0.12291730328123185	0.46704048482145466	-0.03301133101009146	-0.07841036224884224	0.5670857692246504	0.02224184925920203	-0.17339781449920133	0.5520745066692411	0.021353088949862653	-0.16330464346106321	0.5320809457455729	0.017043219886415106	-0.14868642252801179	0.50415590999714	-0.0012006861931279644	-0.12221023769315376	0.5911433651491701	0.04731312591180681	-0.14086938183115905	0.5762713399727536	0.040018667694239674	-0.1335472409922921	0.5519860910206827	0.028744067272899354	-0.12203552440982457	0.5182933121862792	0.005776705729866327	-0.10377505127335906	0.5992744826412727	0.0358801925510569	-0.11726922062366096	0.5839950400362994	0.03026416902807283	-0.10952332406673326	0.5628547549822189	0.022038741009838048	-0.09924661930552414	0.5304207028740145	0.001964648127001034	-0.08583826770014336	0.6035396267035407	0.01481819199382639	-0.06244627281080595	0.587287138550379	0.009447052949008272	-0.06253284181546248	0.5673282144531908	0.0029618993545872385	-0.06316224688332428	0.5333131160431095	-0.008619502792737599	-0.06628116583937693	0.4622830810018609	-0.023011742144276925	-0.051989820119430985
21	0.7333333333333302	0.4813436239311576	-0.03365922621551676	-0.1733644465069104	0.478207489403237	-0.034734282821896945	-0.15062661649796133	0.46408781757785245	-0.03385120993213542	-0.12290162687100548	0.4670301463311758	-0.03304932847485709	-0.07839781031965964	0.5672544032091366	0.02162577639709129	-0.17342088617130313	0.5522284595166569	0.020907210871091042	-0.16333601236270867	0.5321990007903297	0.01678194390795673	-0.14871367367790095	0.5042000477928718	-0.0013273188555835702	-0.12222312201873009	0.5915043770027455	0.04655657716735839	-0.1409373799297362	0.5765615477213704	0.039433995552820233	-0.13359022509184698	0.5521727032625104	0.028399596753353906	-0.12206478110491625	0.5183343713945916	0.00564992843660217	-0.10380094227310532	0.5994832856596328	0.03543655442188076	-0.11724371536464129	0.5841721671388188	0.029903800946558978	-0.10950044159814565	0.5629900468423188	0.02176298473263716	-0.0992425241625372	0.5304651126594447	0.0018245419759436166	-0.08585193079115261	0.6037650652955299	0.014105944599103748	-0.06264583383279265	0.5874630173138166	0.008886625415503113	-0.06268986633913554	0.5674443943387685	0.00258330962117459	-0.06326862637562902	0.5333417415538274	-0.008765418290612503	-0.06628506447610183	0.4622830810018609	-0.023011742144276925	-0.051989820119430985
22	0.7666666666666633	0.4813743245100207	-0.03386378233005127	-0.1733328360762456	0.47820399276637937	-0.034882255836163445	-0.15059714368844695	0.46405843900341126	-0.03392608234981398	-0.12288777630117209	0.46702320070176817	-0.03308307025777946	-0.07838620870311264	0.567398359643231	0.021175668773110723	-0.17342002930221534	0.5523627012168304	0.020560158326235478	-0.16334282122783284	0.5323032577082366	0.01656179014262482	-0.14872633700645382	0.5042345848345333	-0.0014423726313985696	-0.12223792784479393	0.591831635545313	0.045899037188486425	-0.14097597021218938	0.5768305069436573	0.038914717062816684	-0.13361489603386756	0.5523525944481575	0.028086683785294997	-0.12208254825886788	0.5183750243975425	0.005551511863751135	-0.1038112954030288	0.599660442099079	0.03509022792995109	-0.11720499434274845	0.5843294223606411	0.029601245315527325	-0.10946995047485841	0.5631169946757075	0.021514118418494155	-0.09923221296783324	0.5305095441862429	0.0017056137849312814	-0.08584945724417037	0.6040022309320139	0.013365623756057765	-0.06286246020546438	0.5876452933525956	0.008320771033816454	-0.06285510942921413	0.5675614690182368	0.0022230106080426415	-0.06337408620757712	0.5333686930501884	-0.00888374219694299	-0.06626848851682832	0.4622830810018609	-0.023011742144276925	-0.051989820119430985
